<svg xmlns="http://www.w3.org/2000/svg" viewBox="0 0 40.72 63.8"><defs><style>.cls-1{fill:none;stroke:#ccc;stroke-miterlimit:10;stroke-width:2.72px;}</style></defs><title>Asset 1</title><g id="Layer_2" data-name="Layer 2"><g id="Layer_1-2" data-name="Layer 1"><g id="Layer_1-3" data-name="Layer 1"><path class="cls-1" d="M1.38,31.92A66,66,0,0,0,3,48a24.79,24.79,0,0,0,4.14,9.2,11.9,11.9,0,0,0,6,4.21,27,27,0,0,0,14.55,0,11.9,11.9,0,0,0,6-4.21A24.82,24.82,0,0,0,37.78,48a66.12,66.12,0,0,0,1.55-16.12,75.66,75.66,0,0,0-1.14-14.33A26.9,26.9,0,0,0,34.7,8.18,13.51,13.51,0,0,0,28.78,3a20.79,20.79,0,0,0-8.45-1.6,20.78,20.78,0,0,0-8.41,1.57A13.5,13.5,0,0,0,6,8.15a26.86,26.86,0,0,0-3.49,9.41A75.5,75.5,0,0,0,1.38,31.92Z"/></g></g></g></svg>