<svg xmlns="http://www.w3.org/2000/svg" viewBox="0 0 33.03 68.27"><defs><style>.cls-1{fill:none;stroke:#ccc;stroke-miterlimit:10;stroke-width:2.05px;}</style></defs><title>Asset 1</title><g id="Layer_2" data-name="Layer 2"><g id="Layer_1-2" data-name="Layer 1"><g id="Layer_1-3" data-name="Layer 1"><path class="cls-1" d="M27,67.25H6a4,4,0,0,1-3.37-1.64C-1,60.84,2.5,46.32,3.65,42c4.2-15.65,5-25.66,4.95-31.31C8.53,4.57,7.53,2.13,7.53,2.1A.75.75,0,0,1,8.21,1H24.88a.75.75,0,0,1,.65,1.08s-1,2.46-1.1,8.6c-.06,5.64.75,15.66,4.95,31.31,1.16,4.34,4.67,18.86,1,23.62A4,4,0,0,1,27,67.25ZM9.22,2.54C10.14,5.8,12,16.91,5.13,42.38,2.83,51,1.28,61.38,3.86,64.7a2.58,2.58,0,0,0,2.17,1H27a2.57,2.57,0,0,0,2.17-1c2.57-3.36,1-13.73-1.27-22.32-6.83-25.47-5-36.58-4.09-39.84Z"/></g></g></g></svg>